<?xml version="1.0" standalone="no"?>
<!DOCTYPE svg PUBLIC "-//W3C//DTD SVG 20010904//EN"
 "http://www.w3.org/TR/2001/REC-SVG-20010904/DTD/svg10.dtd">
<svg version="1.0" xmlns="http://www.w3.org/2000/svg"
 width="500.000000pt" height="500.000000pt" viewBox="0 0 500.000000 500.000000"
 preserveAspectRatio="xMidYMid meet">

<g transform="translate(0.000000,500.000000) scale(0.100000,-0.100000)"
fill="#000000" stroke="none">
<path d="M2102 2703 c1 -10 0 -37 0 -61 -2 -40 -5 -44 -63 -82 -48 -31 -58
-41 -44 -46 9 -4 32 1 51 10 19 9 39 16 44 16 15 0 12 -68 -2 -77 -7 -5 -29
-25 -47 -46 -41 -44 -23 -50 21 -7 16 17 32 30 35 30 3 0 3 -18 1 -41 -3 -35
-2 -38 9 -23 7 10 13 37 13 60 0 37 5 47 43 79 23 20 32 32 20 26 -12 -6 -25
-16 -28 -21 -3 -6 -13 -10 -22 -10 -24 0 -7 49 29 87 27 28 29 34 18 48 -12
15 -14 15 -22 1 -15 -27 -27 -18 -26 17 1 19 -2 39 -6 45 -11 18 -26 14 -24
-5z"/>
<path d="M2235 2593 c-4 -15 -9 -42 -11 -60 -7 -56 -22 -83 -46 -84 -17 -1
-19 -2 -5 -6 22 -6 22 -18 -3 -43 -14 -14 -16 -20 -6 -20 7 0 19 6 25 14 19
23 82 25 116 4 32 -19 75 -24 75 -9 0 6 -12 23 -26 38 l-25 28 17 -27 c13 -23
14 -28 2 -28 -8 0 -23 6 -33 14 -18 13 -18 16 18 74 42 69 44 77 18 92 -24 12
-44 13 -37 1 3 -5 -5 -33 -19 -63 -14 -29 -25 -61 -25 -70 0 -19 -8 -22 -27
-10 -10 6 -10 22 -2 67 15 85 11 153 -6 88z"/>
<path d="M2149 2272 c30 -42 55 -48 89 -22 l27 22 -41 -7 c-26 -4 -44 -2 -49
4 -3 6 -16 16 -27 22 -21 11 -21 11 1 -19z"/>
<path d="M2457 2255 c27 -34 43 -44 43 -27 0 10 -53 62 -63 62 -5 0 5 -16 20
-35z"/>
<path d="M1935 2240 c8 -30 37 -72 52 -77 6 -2 18 10 26 26 9 17 11 31 6 31
-5 0 -9 -4 -9 -9 0 -5 -7 -11 -15 -15 -9 -3 -24 8 -41 32 -21 30 -25 32 -19
12z"/>
<path d="M2535 2210 c-11 -4 -33 -13 -50 -20 -25 -9 -27 -13 -14 -20 17 -10
149 28 149 42 0 10 -59 9 -85 -2z"/>
<path d="M2605 2168 c-6 -12 -21 -28 -35 -37 -23 -15 -24 -15 -17 3 8 19 7 19
-11 3 -12 -11 -26 -15 -38 -11 -15 5 -14 3 3 -10 22 -16 26 -16 83 10 64 28
71 37 42 53 -14 7 -20 5 -27 -11z"/>
<path d="M2448 2144 c-5 -4 -8 -20 -8 -35 0 -34 34 -59 44 -33 10 25 7 34 -8
28 -10 -4 -16 3 -18 21 -2 15 -6 23 -10 19z"/>
<path d="M2533 2071 c-35 -17 -63 -33 -63 -35 0 -3 25 6 55 21 30 15 58 24 62
20 10 -10 -37 -42 -62 -42 -13 0 -26 -13 -39 -39 -21 -42 -31 -116 -17 -116
11 0 21 25 21 56 0 17 11 30 40 46 27 16 38 28 35 39 -4 10 6 22 30 35 35 19
41 37 14 42 -8 1 -42 -11 -76 -27z m3 -66 c-21 -16 -32 -13 -21 4 3 6 14 11
23 11 15 -1 15 -2 -2 -15z"/>
<path d="M2417 2044 c-13 -13 -7 -41 12 -58 17 -16 19 -16 25 0 4 10 3 20 -2
23 -5 3 -13 14 -18 24 -6 10 -13 14 -17 11z"/>
<path d="M2564 1974 c-10 -8 -13 -13 -6 -9 30 15 6 -21 -55 -84 -50 -50 -83
-74 -123 -89 -31 -12 -46 -21 -34 -21 12 -1 62 19 110 44 49 25 85 45 79 45
-5 0 15 25 45 55 45 46 52 57 40 65 -21 14 -33 12 -56 -6z"/>
<path d="M1868 1850 c2 -22 5 -40 7 -40 2 0 5 18 7 40 2 24 -1 40 -7 40 -6 0
-9 -16 -7 -40z"/>
<path d="M1952 1878 c-13 -13 -16 -54 -4 -61 4 -3 7 9 7 26 0 26 5 33 23 35
28 4 40 -23 23 -50 -10 -16 -10 -19 1 -16 18 6 22 46 8 64 -15 17 -42 18 -58
2z"/>
<path d="M2050 1850 c12 -23 25 -38 30 -35 6 4 10 8 10 11 0 3 -4 3 -9 0 -10
-7 -33 42 -26 55 4 5 -1 9 -10 9 -13 0 -13 -6 5 -40z"/>
<path d="M2095 1880 c4 -6 11 -8 16 -5 14 9 11 15 -7 15 -8 0 -12 -5 -9 -10z"/>
<path d="M2139 1848 c2 -24 6 -36 9 -28 3 8 10 18 16 22 8 5 7 8 -1 8 -7 0
-13 7 -13 16 0 11 6 15 20 11 11 -3 20 -1 20 4 0 5 -12 9 -28 9 -26 0 -27 -2
-23 -42z"/>
<path d="M2615 1827 c96 -33 125 -48 125 -64 0 -7 10 -13 23 -13 21 1 21 2 -8
25 -34 29 -113 61 -171 70 -27 4 -18 -2 31 -18z"/>
</g>
</svg>
